<?xml version="1.0" encoding="UTF-8"?><svg id="uuid-72aa8f19-8694-4ce8-98ca-7c303ec37896" xmlns="http://www.w3.org/2000/svg" viewBox="0 0 148.69 134"><g id="uuid-82525dcd-dd94-426e-beab-18484ecc8a97"><g><rect y="47" width="148.69" height="83.67" style="fill:#0c2c41;"/><polygon points="74.35 0 0 47 148.69 47 74.35 0" style="fill:#3774df;"/><rect x="11.51" y="20.83" width="125.67" height="107" style="fill:#fff;"/><g><rect x="18.6" y="27.5" width="111.44" height="2"/><rect x="18.6" y="36.48" width="111.44" height="2"/><rect x="18.6" y="45.45" width="111.44" height="2"/><rect x="18.6" y="54.43" width="111.44" height="2"/><rect x="18.6" y="63.4" width="111.44" height="2"/><rect x="18.6" y="72.38" width="111.44" height="2"/><rect x="18.6" y="81.35" width="111.44" height="2"/><rect x="18.6" y="90.32" width="111.44" height="2"/><rect x="18.6" y="99.3" width="111.44" height="2"/><rect x="18.6" y="108.27" width="111.44" height="2"/><rect x="18.6" y="117.25" width="111.44" height="2"/></g><polygon points="0 47 57.35 90.5 0 134 0 47" style="fill:#2e6bc9;"/><polygon points="148.69 47 91.35 90.5 148.69 134 148.69 47" style="fill:#2e6bc9;"/><polygon points="0 134 57.35 90.5 91.35 90.5 148.69 134 0 134" style="fill:#3774df;"/></g></g></svg>