<?xml version="1.0" encoding="UTF-8"?><svg xmlns="http://www.w3.org/2000/svg" viewBox="0 0 125.8 169.76"><g style="isolation:isolate;"><g id="uuid-d661bae5-9136-433c-b9d9-2f785755fc2c"><g id="uuid-cec143a2-8577-4bfa-8ad1-f8bf2631e29b"><g><rect x="10.27" y="17.27" width="105.26" height="145.95" rx="8.39" ry="8.39" transform="translate(-14.33 11.91) rotate(-9.72)" style="fill:#64798a;"/><path d="M50.58,18.31l43.61-7.47c4.57-.78,8.9,2.29,9.69,6.85l21.81,127.31c.78,4.57-2.29,8.9-6.85,9.69l-43.61,7.47L50.58,18.31Z" style="fill:#64798a; mix-blend-mode:multiply; opacity:.25;"/><rect x="19.18" y="26.56" width="87.45" height="127.35" transform="translate(-14.33 11.91) rotate(-9.72)" style="fill:#f4f8f7;"/><path d="M61.26,9.45l-.54,.09C59.65,3.29,53.72-.9,47.47,.17s-10.44,7-9.37,13.25l-.54,.09c-6.25,1.07-10.45,7-9.37,13.25s7,10.45,13.25,9.38l23.7-4.06c6.25-1.07,10.45-7,9.38-13.25s-7-10.45-13.25-9.38Zm-10.88,7.7c-3.13,.54-6.1-1.57-6.64-4.7s1.57-6.1,4.7-6.64,6.1,1.57,6.64,4.7-1.57,6.1-4.7,6.64Z" style="fill:#3a4a5d;"/><rect x="18.17" y="47.54" width="29.18" height="2.39" transform="translate(-7.76 6.23) rotate(-9.72)" style="fill:#b6c8cf;"/><rect x="19.74" y="56.71" width="29.18" height="2.39" transform="translate(-9.28 6.63) rotate(-9.72)" style="fill:#b6c8cf;"/><rect x="21.31" y="65.87" width="29.18" height="2.39" transform="translate(-10.81 7.02) rotate(-9.72)" style="fill:#b6c8cf;"/><rect x="22.55" y="71.2" width="74.59" height="2.39" transform="translate(-11.36 11.14) rotate(-9.72)" style="fill:#b6c8cf;"/><rect x="24.12" y="80.37" width="74.59" height="2.39" transform="translate(-12.89 11.54) rotate(-9.72)" style="fill:#b6c8cf;"/><rect x="25.69" y="89.53" width="74.59" height="2.39" transform="translate(-14.41 11.94) rotate(-9.72)" style="fill:#b6c8cf;"/><rect x="27.26" y="98.7" width="74.59" height="2.39" transform="translate(-15.94 12.33) rotate(-9.72)" style="fill:#b6c8cf;"/><rect x="28.83" y="107.86" width="74.59" height="2.39" transform="translate(-17.46 12.73) rotate(-9.72)" style="fill:#b6c8cf;"/><rect x="30.4" y="117.03" width="74.59" height="2.39" transform="translate(-18.99 13.13) rotate(-9.72)" style="fill:#b6c8cf;"/><rect x="31.97" y="126.19" width="74.59" height="2.39" transform="translate(-20.51 13.52) rotate(-9.72)" style="fill:#b6c8cf;"/><rect x="33.54" y="135.36" width="74.59" height="2.39" transform="translate(-22.04 13.92) rotate(-9.72)" style="fill:#b6c8cf;"/><path d="M94.6,35.71c-12.83,5.08-24.45,13.83-32.61,25.02-1.91,2.83-6.51,2.48-7.85-.7-.46-1.18-.72-2.64-1.08-3.81-.66-2.48-2.37-8.84-3.02-11.23-1.33-3.6,2.09-7.39,5.82-6.32,5.73,1.14,11.32,2.93,16.66,5.29,9.44,4.25,18.06,10.57,24.29,18.85-9.59-12.31-24.13-19.86-39.2-23.01-1.2-.19-2.48-.66-3.67-.44-2.42,.4-3.9,3.06-2.99,5.37,0,0,1.07,3.73,1.07,3.73l2.13,7.45c.32,.98,.72,2.73,1.08,3.63,.91,2.1,4,2.51,5.43,.74,2.3-3.12,4.7-6.23,7.43-8.98,3.65-3.74,7.68-7.1,12.02-10.02,4.35-2.91,8.87-5.49,13.82-7.46,.51-.2,1.09,.05,1.3,.56,.22,.54-.07,1.15-.62,1.32h0Z" style="fill:#ff0013;"/></g></g></g></g></svg>