<?xml version="1.0" encoding="UTF-8"?><svg id="b" xmlns="http://www.w3.org/2000/svg" viewBox="0 0 105.87 168.99"><g id="c"><g><path d="M6.87,13.49H99.02c0,44.39-39.15,48.24-39.15,71.4s39.15,27.03,39.15,71.43H6.87c0-44.4,39.13-48.24,39.13-71.43S6.87,57.88,6.87,13.49Z" style="fill:#fff;"/><path d="M91.2,156.31c-2.05-24.18-45.25-16.47-32.88-71.41h-10.75c12.38,54.94-30.83,47.23-32.87,71.41H91.2Z" style="fill:#0fa3ec;"/><path d="M86.16,50.03c-23.32-2.39-49.64-14.2-70.86-5.99,11.5,17.86,30.7,24.62,30.7,40.84,0,.63-.04,1.23-.1,1.83,4.57,.39,9.27,0,14-.97-.01-.29-.05-.57-.05-.87,0-14.27,14.88-21.22,26.3-34.85Z" style="fill:#3fd0e1;"/><path d="M105.87,3.78v5.94c0,2.09-2.58,3.78-5.77,3.78H5.77c-3.18,0-5.77-1.69-5.77-3.78V3.78C0,1.69,2.6,0,5.77,0H100.1c3.2,0,5.77,1.69,5.77,3.78Z"/><path d="M105.87,159.28v5.94c0,2.09-2.58,3.78-5.77,3.78H5.77c-3.18,0-5.77-1.69-5.77-3.78v-5.94c0-2.09,2.6-3.78,5.77-3.78H100.1c3.2,0,5.77,1.69,5.77,3.78Z"/></g></g></svg>