<?xml version="1.0" encoding="UTF-8"?><svg id="uuid-db971365-caaf-4760-a270-1c21a8a1d28e" xmlns="http://www.w3.org/2000/svg" viewBox="0 0 124.64 21.58"><g id="uuid-bb31e1b7-dd14-42a3-9c8a-f36991af1a74"><g><g><path d="M13,21.51L1.65,14.94c-1.02-.59-1.65-1.68-1.65-2.85V2.99c0-.37,.4-.59,.71-.41l11.4,6.6c.99,.57,1.6,1.63,1.6,2.77v9.15c0,.37-.4,.59-.71,.41Z" style="fill:#299cd8;"/><path d="M15.58,21.51l11.35-6.57c1.02-.59,1.65-1.68,1.65-2.85V2.99c0-.37-.4-.59-.71-.41l-11.4,6.6c-.99,.57-1.6,1.63-1.6,2.77v9.15c0,.37,.4,.59,.71,.41Z" style="fill:#299cd8;"/></g><circle cx="14.29" cy="2.51" r="2.51" style="fill:#e04d29;"/><g><path d="M32.48,6.05c0-.65,.16-1.23,.47-1.77,.31-.53,.74-.95,1.27-1.27,.53-.31,1.12-.47,1.77-.47h17.31v3.69h-16.27c-.24,0-.44,.08-.6,.25s-.25,.37-.25,.6v.1c0,.25,.09,.46,.26,.63,.17,.17,.38,.26,.63,.26h6.61c.66,0,1.26,.16,1.8,.48s.97,.75,1.3,1.29c.32,.54,.48,1.14,.48,1.81v2.04c0,.67-.16,1.27-.48,1.82-.32,.54-.76,.98-1.31,1.3-.55,.32-1.15,.48-1.81,.48h-11.16v-3.69h10.15c.26,0,.47-.09,.65-.27s.27-.4,.27-.65-.09-.47-.27-.65-.4-.27-.65-.27h-6.84c-.61,0-1.16-.15-1.67-.45s-.9-.7-1.2-1.2c-.3-.5-.45-1.06-.45-1.67v-2.4Zm17.13,11.26V8.01h3.69v9.3h-3.69Z" style="fill:#333;"/><path d="M66.6,2.54c.7,0,1.34,.17,1.92,.51,.58,.34,1.04,.8,1.39,1.38,.35,.58,.52,1.22,.52,1.93v1.59c0,.7-.17,1.34-.52,1.92-.34,.58-.81,1.04-1.39,1.38s-1.22,.52-1.92,.52h-7.25v5.53h-3.71V8.06h3.71v.02h6.57c.22,0,.41-.08,.57-.23,.15-.15,.23-.34,.23-.56v-.26c0-.22-.08-.41-.23-.56-.16-.15-.35-.23-.57-.23h-10.28V2.54h10.95Z" style="fill:#333;"/><path d="M77.3,11.18v1.07h-4.05v-1.07h4.05Z" style="fill:#333;"/><path d="M92.23,2.54c.7,0,1.34,.17,1.92,.51,.58,.34,1.04,.8,1.39,1.38,.35,.58,.52,1.22,.52,1.93v1.59c0,.7-.17,1.34-.52,1.92-.34,.58-.81,1.04-1.39,1.38s-1.22,.52-1.92,.52h-7.25v5.53h-3.71V8.06h3.71v.02h6.57c.22,0,.41-.08,.57-.23,.15-.15,.23-.34,.23-.56v-.26c0-.22-.08-.41-.23-.56-.16-.15-.35-.23-.57-.23h-10.28V2.54h10.95Z" style="fill:#333;"/><path d="M106.83,2.54h4.43l-5.92,7.41,5.88,7.36h-4.43l-3.67-4.58-1.03,1.29v3.29h-3.7V2.54h3.69v5.93l4.75-5.93Z" style="fill:#333;"/><path d="M117.27,2.54V13.62h7.37v3.69h-11.07V2.54h3.7Z" style="fill:#333;"/></g><g><path d="M32.48,20.76l.3-.03c.01,.12,.05,.22,.1,.3,.05,.08,.13,.14,.24,.19,.11,.05,.23,.07,.37,.07,.12,0,.23-.02,.32-.05s.16-.09,.21-.15,.07-.13,.07-.21-.02-.14-.07-.2c-.04-.06-.12-.1-.22-.14-.06-.02-.21-.06-.43-.12-.22-.05-.38-.1-.46-.15-.11-.06-.2-.13-.26-.22-.06-.09-.08-.19-.08-.3,0-.12,.03-.23,.1-.34,.07-.11,.17-.19,.3-.24,.13-.05,.28-.08,.44-.08,.18,0,.33,.03,.47,.09,.14,.06,.24,.14,.31,.25,.07,.11,.11,.24,.12,.38l-.3,.02c-.02-.15-.07-.27-.17-.34-.09-.08-.23-.12-.42-.12s-.33,.04-.42,.11c-.09,.07-.13,.16-.13,.25,0,.09,.03,.16,.09,.21,.06,.06,.22,.11,.48,.17,.26,.06,.43,.11,.53,.15,.14,.06,.24,.15,.31,.24,.07,.1,.1,.21,.1,.34s-.04,.25-.11,.36c-.07,.11-.18,.2-.31,.26s-.29,.09-.46,.09c-.22,0-.4-.03-.55-.1-.15-.06-.26-.16-.35-.29s-.13-.27-.13-.43Z" style="fill:#e04d29;"/><path d="M35.2,21.54v-2.4h.32v2.4h-.32Z" style="fill:#e04d29;"/><path d="M36.3,20.76l.3-.03c.01,.12,.05,.22,.1,.3,.05,.08,.13,.14,.24,.19,.11,.05,.23,.07,.37,.07,.12,0,.23-.02,.32-.05s.16-.09,.21-.15,.07-.13,.07-.21-.02-.14-.07-.2c-.04-.06-.12-.1-.22-.14-.06-.02-.21-.06-.43-.12-.22-.05-.38-.1-.46-.15-.11-.06-.2-.13-.26-.22-.06-.09-.08-.19-.08-.3,0-.12,.03-.23,.1-.34,.07-.11,.17-.19,.3-.24,.13-.05,.28-.08,.44-.08,.18,0,.33,.03,.47,.09,.14,.06,.24,.14,.31,.25,.07,.11,.11,.24,.12,.38l-.3,.02c-.02-.15-.07-.27-.17-.34-.09-.08-.23-.12-.42-.12s-.33,.04-.42,.11c-.09,.07-.13,.16-.13,.25,0,.09,.03,.16,.09,.21,.06,.06,.22,.11,.48,.17,.26,.06,.43,.11,.53,.15,.14,.06,.24,.15,.31,.24,.07,.1,.1,.21,.1,.34s-.04,.25-.11,.36c-.07,.11-.18,.2-.31,.26s-.29,.09-.46,.09c-.22,0-.4-.03-.55-.1-.15-.06-.26-.16-.35-.29s-.13-.27-.13-.43Z" style="fill:#e04d29;"/><path d="M39.55,21.54v-2.12h-.79v-.28h1.9v.28h-.79v2.12h-.32Z" style="fill:#e04d29;"/><path d="M41.33,21.54v-2.4h1.73v.28h-1.42v.73h1.33v.28h-1.33v.82h1.47v.28h-1.79Z" style="fill:#e04d29;"/><path d="M43.86,21.54v-2.4h.48l.57,1.7c.05,.16,.09,.28,.12,.36,.03-.09,.07-.22,.13-.38l.57-1.67h.43v2.4h-.31v-2.01l-.7,2.01h-.29l-.69-2.04v2.04h-.31Z" style="fill:#e04d29;"/><path d="M48.09,21.54v-2.4h.91c.16,0,.28,0,.36,.02,.12,.02,.22,.06,.3,.11s.14,.13,.19,.23,.07,.21,.07,.33c0,.2-.06,.38-.19,.52-.13,.14-.36,.21-.7,.21h-.62v.98h-.32Zm.32-1.26h.62c.2,0,.35-.04,.44-.11,.09-.08,.13-.18,.13-.32,0-.1-.03-.19-.08-.26s-.12-.12-.2-.14c-.05-.01-.15-.02-.3-.02h-.61v.86Z" style="fill:#e04d29;"/><path d="M50.63,21.54v-2.4h1.73v.28h-1.42v.73h1.33v.28h-1.33v.82h1.47v.28h-1.79Z" style="fill:#e04d29;"/><path d="M53.16,21.54v-2.4h.32v2.12h1.18v.28h-1.5Z" style="fill:#e04d29;"/><path d="M55.21,21.54l.92-2.4h.34l.98,2.4h-.36l-.28-.73h-1l-.26,.73h-.34Zm.69-.99h.81l-.25-.66c-.08-.2-.13-.37-.17-.5-.03,.15-.07,.31-.13,.46l-.26,.7Z" style="fill:#e04d29;"/><path d="M58.08,21.54v-2.4h.91c.16,0,.28,0,.36,.02,.12,.02,.22,.06,.3,.11,.08,.06,.14,.13,.19,.23s.07,.21,.07,.33c0,.2-.06,.38-.19,.52s-.36,.21-.7,.21h-.62v.98h-.32Zm.32-1.26h.62c.21,0,.35-.04,.44-.11,.09-.08,.13-.18,.13-.32,0-.1-.03-.19-.08-.26s-.12-.12-.2-.14c-.05-.01-.15-.02-.3-.02h-.61v.86Z" style="fill:#e04d29;"/><path d="M60.55,20.37c0-.4,.11-.71,.32-.94,.21-.23,.49-.34,.83-.34,.22,0,.42,.05,.6,.16,.18,.11,.31,.25,.41,.44,.09,.19,.14,.4,.14,.64s-.05,.46-.15,.65-.24,.34-.42,.44c-.18,.1-.38,.15-.58,.15-.23,0-.43-.05-.61-.16-.18-.11-.31-.26-.4-.45-.09-.19-.14-.39-.14-.6Zm.33,0c0,.29,.08,.52,.23,.68,.16,.17,.35,.25,.58,.25s.44-.08,.59-.25c.16-.17,.23-.41,.23-.72,0-.2-.03-.37-.1-.51-.07-.15-.16-.26-.29-.34-.13-.08-.27-.12-.43-.12-.23,0-.42,.08-.58,.23-.16,.15-.24,.41-.24,.77Z" style="fill:#e04d29;"/><path d="M63.61,21.54v-2.4h1.06c.21,0,.38,.02,.49,.06,.11,.04,.2,.12,.27,.23s.1,.23,.1,.36c0,.17-.05,.31-.17,.43-.11,.12-.28,.19-.51,.22,.08,.04,.15,.08,.19,.12,.09,.09,.18,.19,.26,.32l.42,.65h-.4l-.32-.5c-.09-.14-.17-.25-.23-.33-.06-.08-.11-.13-.16-.16-.05-.03-.1-.05-.14-.06-.04,0-.1-.01-.18-.01h-.37v1.07h-.32Zm.32-1.34h.68c.14,0,.26-.01,.34-.05,.08-.03,.14-.08,.19-.14s.06-.14,.06-.22c0-.11-.04-.21-.12-.28-.08-.07-.21-.11-.39-.11h-.76v.79Z" style="fill:#e04d29;"/><path d="M66.23,21.54l.92-2.4h.34l.98,2.4h-.36l-.28-.73h-1l-.26,.73h-.34Zm.69-.99h.81l-.25-.66c-.08-.2-.13-.37-.17-.5-.03,.15-.07,.31-.13,.46l-.26,.7Z" style="fill:#e04d29;"/><path d="M69.1,21.54v-2.4h.33l1.26,1.88v-1.88h.3v2.4h-.33l-1.26-1.89v1.89h-.3Z" style="fill:#e04d29;"/><path d="M72.96,21.54v-2.4h.91c.16,0,.28,0,.36,.02,.12,.02,.22,.06,.3,.11,.08,.06,.14,.13,.19,.23s.07,.21,.07,.33c0,.2-.06,.38-.19,.52s-.36,.21-.7,.21h-.62v.98h-.32Zm.32-1.26h.62c.21,0,.35-.04,.44-.11,.09-.08,.13-.18,.13-.32,0-.1-.03-.19-.08-.26s-.12-.12-.2-.14c-.05-.01-.15-.02-.3-.02h-.61v.86Z" style="fill:#e04d29;"/><path d="M75.5,21.54v-2.4h1.06c.21,0,.38,.02,.49,.06,.11,.04,.2,.12,.27,.23s.1,.23,.1,.36c0,.17-.05,.31-.17,.43-.11,.12-.28,.19-.51,.22,.08,.04,.15,.08,.19,.12,.09,.09,.18,.19,.26,.32l.42,.65h-.4l-.32-.5c-.09-.14-.17-.25-.23-.33-.06-.08-.11-.13-.16-.16-.05-.03-.1-.05-.14-.06-.04,0-.1-.01-.18-.01h-.37v1.07h-.32Zm.32-1.34h.68c.14,0,.26-.01,.34-.05,.08-.03,.14-.08,.19-.14s.06-.14,.06-.22c0-.11-.04-.21-.12-.28-.08-.07-.21-.11-.39-.11h-.76v.79Z" style="fill:#e04d29;"/><path d="M78.13,21.54l.92-2.4h.34l.98,2.4h-.36l-.28-.73h-1l-.26,.73h-.34Zm.69-.99h.81l-.25-.66c-.08-.2-.13-.37-.17-.5-.03,.15-.07,.31-.13,.46l-.26,.7Z" style="fill:#e04d29;"/><path d="M80.99,21.54v-2.4h.32v1.19l1.19-1.19h.43l-1.01,.97,1.05,1.43h-.42l-.85-1.21-.39,.38v.83h-.32Z" style="fill:#e04d29;"/><path d="M84.28,21.54v-2.12h-.79v-.28h1.9v.28h-.79v2.12h-.32Z" style="fill:#e04d29;"/><path d="M86.08,21.54v-2.4h.32v2.4h-.32Z" style="fill:#e04d29;"/><path d="M87.29,21.54v-2.4h.32v1.19l1.19-1.19h.43l-1.01,.97,1.05,1.43h-.42l-.85-1.21-.39,.38v.83h-.32Z" style="fill:#e04d29;"/><path d="M90.96,21.54v-2.4h.32v1.19l1.19-1.19h.43l-1.01,.97,1.05,1.43h-.42l-.85-1.21-.39,.38v.83h-.32Z" style="fill:#e04d29;"/><path d="M93.58,21.54v-2.4h1.73v.28h-1.42v.73h1.33v.28h-1.33v.82h1.47v.28h-1.79Z" style="fill:#e04d29;"/><path d="M96.12,21.54v-2.4h1.06c.21,0,.38,.02,.49,.06,.11,.04,.2,.12,.27,.23s.1,.23,.1,.36c0,.17-.05,.31-.17,.43-.11,.12-.28,.19-.51,.22,.08,.04,.15,.08,.19,.12,.09,.09,.18,.19,.26,.32l.42,.65h-.4l-.32-.5c-.09-.14-.17-.25-.23-.33-.06-.08-.11-.13-.16-.16-.05-.03-.1-.05-.14-.06-.04,0-.1-.01-.18-.01h-.37v1.07h-.32Zm.32-1.34h.68c.14,0,.26-.01,.34-.05,.08-.03,.14-.08,.19-.14s.06-.14,.06-.22c0-.11-.04-.21-.12-.28-.08-.07-.21-.11-.39-.11h-.76v.79Z" style="fill:#e04d29;"/><path d="M98.71,20.86l.29-.04c0,.18,.04,.31,.1,.38,.06,.07,.14,.1,.25,.1,.08,0,.15-.02,.21-.05s.1-.09,.12-.15c.02-.06,.03-.16,.03-.3v-1.65h.32v1.63c0,.2-.02,.36-.07,.47-.05,.11-.13,.19-.23,.25-.11,.06-.23,.09-.37,.09-.21,0-.37-.06-.48-.18-.11-.12-.17-.3-.16-.54Z" style="fill:#e04d29;"/><path d="M100.58,21.54l.92-2.4h.34l.98,2.4h-.36l-.28-.73h-1l-.26,.73h-.34Zm.69-.99h.81l-.25-.66c-.08-.2-.13-.37-.17-.5-.03,.15-.07,.31-.13,.46l-.26,.7Z" style="fill:#e04d29;"/><path d="M104.5,21.54v-2.4h.32v2.12h1.18v.28h-1.5Z" style="fill:#e04d29;"/><path d="M106.55,21.54l.92-2.4h.34l.98,2.4h-.36l-.28-.73h-1l-.26,.73h-.34Zm.69-.99h.81l-.25-.66c-.08-.2-.13-.37-.17-.5-.03,.15-.07,.31-.13,.46l-.26,.7Z" style="fill:#e04d29;"/><path d="M109.42,21.54v-2.4h.91c.16,0,.28,0,.36,.02,.12,.02,.22,.06,.3,.11,.08,.06,.14,.13,.19,.23s.07,.21,.07,.33c0,.2-.06,.38-.19,.52s-.36,.21-.7,.21h-.62v.98h-.32Zm.32-1.26h.62c.21,0,.35-.04,.44-.11,.09-.08,.13-.18,.13-.32,0-.1-.03-.19-.08-.26s-.12-.12-.2-.14c-.05-.01-.15-.02-.3-.02h-.61v.86Z" style="fill:#e04d29;"/><path d="M111.56,21.54l.92-2.4h.34l.98,2.4h-.36l-.28-.73h-1l-.26,.73h-.34Zm.69-.99h.81l-.25-.66c-.08-.2-.13-.37-.17-.5-.03,.15-.07,.31-.13,.46l-.26,.7Z" style="fill:#e04d29;"/><path d="M114.43,21.54v-2.4h.33l1.26,1.88v-1.88h.3v2.4h-.33l-1.26-1.89v1.89h-.3Z" style="fill:#e04d29;"/><path d="M118.32,20.59v-.28h1.02s0,.89,0,.89c-.16,.12-.32,.22-.48,.28-.17,.06-.34,.09-.51,.09-.24,0-.45-.05-.64-.15s-.34-.25-.44-.44-.15-.4-.15-.64,.05-.45,.15-.65c.1-.2,.24-.35,.42-.45,.18-.1,.39-.15,.63-.15,.17,0,.33,.03,.47,.08,.14,.06,.25,.13,.33,.24,.08,.1,.14,.23,.18,.39l-.29,.08c-.04-.12-.08-.22-.13-.29-.05-.07-.13-.13-.23-.17-.1-.04-.21-.06-.33-.06-.14,0-.27,.02-.38,.07-.11,.04-.19,.1-.26,.17s-.12,.15-.15,.24c-.06,.15-.09,.31-.09,.48,0,.21,.04,.39,.11,.54s.18,.25,.32,.32,.29,.1,.45,.1c.14,0,.27-.03,.4-.08s.23-.11,.3-.17v-.45h-.71Z" style="fill:#e04d29;"/><path d="M119.88,21.54l.92-2.4h.34l.98,2.4h-.36l-.28-.73h-1l-.26,.73h-.34Zm.69-.99h.81l-.25-.66c-.08-.2-.13-.37-.17-.5-.03,.15-.07,.31-.13,.46l-.26,.7Z" style="fill:#e04d29;"/><path d="M122.75,21.54v-2.4h.33l1.26,1.88v-1.88h.3v2.4h-.33l-1.26-1.89v1.89h-.3Z" style="fill:#e04d29;"/></g></g></g></svg>