<?xml version="1.0" encoding="UTF-8"?><svg xmlns="http://www.w3.org/2000/svg" viewBox="0 0 147.45 97.64"><g style="isolation:isolate;"><g id="uuid-cb1105a5-68fb-449d-9f9f-43afbca7575d"><g id="uuid-4015cf3c-2aa1-42c5-968d-235defcb800c"><path d="M106.5,62.87c-.67-8.36,3.75-16.25,11.25-19.97,.83-.41,1.05-.89,1.05-1.76,0-.59,0-1.19,0-1.78-.45-.69-1.06-1.26-1.82-1.64-6.73-3.41-25.39-12.03-43.1-12.45h0c-.16-.01-.32-.01-.49-.01-.24,0-.47,0-.7,0s-.47,0-.7,0c-.17,0-.33,0-.49,0h0c-8.45,.21-17.12,2.28-24.61,4.76-8.2,2.71-14.97,5.92-18.48,7.7-1.6,.81-2.6,2.45-2.6,4.25v13.13c0,5.34,1.62,10.56,4.68,14.93,2.96,4.23,7.1,9.5,11.79,13.53,12.64,10.85,24.35,13.43,29.23,14.05,.46,.06,1.93,.06,2.39,0,2.27-.29,6.04-1,10.68-2.78,5.32-2.04,11.8-5.48,18.55-11.26,3.09-2.65,5.92-5.83,8.35-8.9-2.81-3.24-4.61-7.33-4.97-11.77Z" style="fill:#fff;"/><path d="M28.88,59.21c-.95-.14-8.12-2.22-14.91-6.02C4.83,48.08,0,41.91,0,35.36c0-3.54,1.21-6.11,3.59-7.62,3.26-2.07,8.6-2.11,15.86-.11,5.32,1.47,9.78,3.55,9.83,3.57l-.6,1.28c-.17-.08-17.31-8.02-24.33-3.55-1.98,1.26-2.94,3.36-2.94,6.43,0,4.19,2.3,10.47,13.25,16.6,6.59,3.69,13.63,5.74,14.42,5.85l-.2,1.39Z" style="fill:#fff;"/><path d="M36.97,41.92s9.76-2.39,35.42-2.39c19.16,0,35.93,2.39,35.93,2.39,0,0-35.93,8.43-71.35,0Z" style="fill:#ddf4f6;"/><path d="M36.97,53.34H108.32s-38.6,13.75-71.35,0Z" style="fill:#ddf4f6;"/><path d="M40.83,65.03c20.88,3.21,42.24,3.21,63.13,0-.04-.14-7.66,4.68-20.17,6.85-12.27,2.25-29.44,1.85-42.96-6.85Z" style="fill:#ddf4f6;"/><path d="M52.63,78.63c13.07,2.21,26.45,2.21,39.52,0-.03-.1-4.74,3.51-12.6,5.15-7.69,1.69-18.54,1.41-26.92-5.15Z" style="fill:#ddf4f6;"/><path d="M84.57,94.81c-4.65,1.78-8.41,2.49-10.68,2.78-.46,.06-1.93,.06-2.39,0-4.88-.62-16.59-3.2-29.23-14.05-4.69-4.03-8.83-9.29-11.79-13.53-3.05-4.38-4.68-9.59-4.68-14.93V30.69c0-1.79,1-3.44,2.6-4.25,3.31-1.68,9.5-4.62,17.06-7.22,.32,3.22,.77,6.86,1.43,10.78,3.54,21.15,12.92,50.42,37.68,64.8Z" style="fill:#ddf4f6; mix-blend-mode:multiply;"/><path d="M73.88,14c17.67,.42,36.31,9.01,43.06,12.43-1-.45-22.58-10.73-44.26-10.73s-37.32,7.42-42.53,9.88c3.52-1.72,8.93-4.15,15.3-6.35,7.8-2.69,17.04-5.02,26.04-5.23h0c.16-.01,.32-.01,.49-.01,.24,0,.47,0,.7,0s.47,0,.7,0c.17,0,.33,0,.49,0h0Z" style="fill:#fff;"/><path d="M116.98,26.45s0,0-.01,0c0,0-.01,0-.02-.01,0,0,.01,0,.02,0,0,0,.01,0,.01,0Z" style="fill:#0484a5;"/><path d="M116.98,37.71c.76,.38,1.37,.96,1.82,1.64,0-3.75,0-7.51,0-11.26-.45-.68-1.06-1.26-1.82-1.64h0s0,0-.01,0h0s-.01,0-.02-.01c-6.75-3.42-25.39-12.01-43.06-12.43h0c-.16-.01-.32-.01-.49-.01-.24,0-.47,0-.7,0s-.47,0-.7,0c-.17,0-.33,0-.49,0h0c-8.99,.22-18.24,2.55-26.04,5.24-6.37,2.2-11.78,4.63-15.3,6.35-.15,.07-.3,.14-.43,.21-.43,.21-.84,.42-1.2,.6-.08,.04-.12,.06-.12,.06-1.6,.81-2.6,2.45-2.6,4.25v11.26c0-1.79,1-3.44,2.6-4.25,3.51-1.78,10.29-4.99,18.48-7.7,7.49-2.48,16.16-4.55,24.61-4.75h0c.16-.01,.32-.01,.49-.01,.24,0,.47,0,.7,0s.47,0,.7,0c.17,0,.33,0,.49,0h0c17.7,.43,36.37,9.04,43.1,12.46Z" style="fill:#ddf4f6;"/><g id="uuid-241716c2-ffad-4e62-ac2e-8685e676ab84"><path d="M124.55,81.64c-1.32-.29-2.65-.51-3.94-.93-7.86-2.55-13.45-9.61-14.11-17.85-.67-8.36,3.75-16.25,11.25-19.97,.83-.41,1.05-.89,1.05-1.76-.03-11.01-.03-22.03,0-33.04,0-3.79,2.66-7.05,6.33-7.88,5.07-1.16,9.93,2.64,9.97,7.88,.05,6.64,.01,13.27,.01,19.91,0,4.51,0,9.02-.01,13.54,0,.56,.15,.88,.7,1.16,6.89,3.56,10.88,9.17,11.58,16.93,.94,10.32-6.41,20.29-17.58,21.91-.15,.02-.3,.08-.46,.12h-4.78Zm7.59-55.73h0c0-5.81,.01-11.62,0-17.44,0-2.66-1.57-4.78-3.85-5.31-3.56-.83-6.55,1.62-6.55,5.38,0,11.62,0,23.25,.02,34.87,0,.78-.26,1.12-.97,1.37-7.44,2.72-12.19,10.45-11.3,18.32,1.13,9.94,10.2,16.89,20.13,15.44,9.71-1.42,16.52-11.05,14.52-20.65-1.32-6.32-5.05-10.69-11.04-13.1-.74-.3-.99-.67-.99-1.45,.03-5.81,.02-11.62,.02-17.44Z" style="fill-rule:evenodd;"/><g><path d="M143.25,15.55c-.61,0-1.22-.02-1.83,0-.6,.03-.86-.19-.85-.82,.06-2.61-.37-2.18,2.14-2.22,.85-.01,1.7,.01,2.54,0,.56-.01,.83,.19,.82,.78-.06,2.68,.33,2.21-2.12,2.27-.24,0-.48,0-.72,0h0Z" style="fill:#ff7673; fill-rule:evenodd;"/><path d="M143.33,9.67c-.64,0-1.27-.02-1.9,0-.59,.02-.87-.18-.85-.82,.07-2.58-.37-2.18,2.14-2.23,.82-.01,1.64,.02,2.46,0,.61-.01,.92,.19,.91,.87-.06,2.56,.3,2.13-2.12,2.18-.21,0-.42,0-.63,0h0Z" style="fill:#ff7673; fill-rule:evenodd;"/><path d="M143.35,18.38c.61,0,1.22,0,1.83,0,.18,0,.43-.05,.54,.05,.75,.68,.24,1.58,.34,2.38,.06,.5-.34,.6-.74,.6-1.35,0-2.7,0-4.05,.01-.5,0-.7-.24-.69-.74,.05-2.75-.39-2.26,2.21-2.3,.19,0,.37,0,.56,0Z" style="fill:#ff7673; fill-rule:evenodd;"/><path d="M143.34,27.22c-.69,0-1.38-.02-2.07,0-.52,.02-.7-.22-.69-.72,.03-2.65-.34-2.2,2.13-2.24,.85-.01,1.7,.02,2.55-.01,.63-.02,.84,.25,.83,.85-.02,2.51,.23,2.07-2.02,2.11-.24,0-.48,0-.72,0Z" style="fill:#ff7673; fill-rule:evenodd;"/><path d="M143.35,33.1c-.69,0-1.38-.01-2.07,0-.51,.01-.71-.21-.7-.71,.03-2.68-.34-2.19,2.12-2.24,.85-.02,1.7,.01,2.55-.01,.55-.02,.84,.16,.83,.77-.03,2.65,.29,2.15-2.09,2.2-.21,0-.42,0-.64,0h0Z" style="fill:#ff7673; fill-rule:evenodd;"/><path d="M143.32,36.04c.69,0,1.38,.01,2.07,0,.47-.01,.69,.19,.68,.66,0,.03,0,.05,0,.08-.02,2.68,.3,2.17-2.07,2.22-.9,.02-1.8-.01-2.71,0-.5,0-.73-.19-.72-.7,.05-2.75-.36-2.17,2.1-2.25,.21,0,.42,0,.64,0h0Z" style="fill:#ff7673; fill-rule:evenodd;"/></g><path d="M125.47,29.71c0-7.01,0-14.01,0-21.02,0-.34,0-.7,.1-1.02,.19-.65,.88-1.05,1.56-.96,.72,.1,1.22,.63,1.25,1.42,.04,1.3,.02,2.6,.02,3.9,0,12.98,0,25.96-.01,38.94,0,.57,.04,.98,.74,1.16,4.05,1.03,6.69,4.15,7.09,8.31,.44,4.65-2.68,8.65-6.77,9.74-4.47,1.19-9.15-.96-10.98-5.03-2.44-5.42,.44-11.51,6.2-13.01,.72-.19,.82-.55,.82-1.18-.01-7.09,0-14.17,0-21.26h0Z" style="fill:#ffc300; fill-rule:evenodd;"/></g></g></g></g></svg>