<?xml version="1.0" encoding="UTF-8"?><svg id="b" xmlns="http://www.w3.org/2000/svg" xmlns:xlink="http://www.w3.org/1999/xlink" viewBox="0 0 150.1 172.22"><defs><linearGradient id="d" x1=".66" y1="-15.67" x2="4.9" y2="129.01" gradientTransform="translate(63.62 35.35)" gradientUnits="userSpaceOnUse"><stop offset="0" stop-color="#4a79ec"/><stop offset=".86" stop-color="#4768cb"/></linearGradient></defs><g id="c"><g><path d="M24.44,20.77H113.81c5.98,0,10.83,4.85,10.83,10.83v122.38c0,5.98-4.85,10.83-10.83,10.83H24.44c-5.98,0-10.83-4.85-10.83-10.83V31.61c0-5.98,4.85-10.83,10.83-10.83Z" transform="translate(-16.44 14.89) rotate(-11)" style="fill:#027;"/><rect x="10.86" y="18.93" width="111.03" height="144.04" rx="10.83" ry="10.83" transform="translate(-16.13 14.34) rotate(-11)" style="fill:url(#d);"/><rect x="21.94" y="24.28" width="87.35" height="125.56" transform="translate(-15.41 14.12) rotate(-11)" style="fill:#fff;"/><path d="M52.59,20.05c-5.48,1.06-10.8-2.52-11.86-8-1.06-5.48,2.52-10.8,8-11.86s10.8,2.52,11.86,8-2.53,10.8-8,11.86Zm-2.83-14.55c-2.55,.49-4.21,2.97-3.72,5.51s2.97,4.21,5.51,3.72,4.21-2.97,3.72-5.51-2.97-4.21-5.51-3.72Z" style="fill:#234c5e;"/><path d="M64.85,7.83l-6.85,1.33c.5,3.85-2.06,7.48-5.93,8.23s-7.6-1.65-8.58-5.41l-6.85,1.33c-5.58,1.08-9.22,6.48-8.14,12.06s6.48,9.22,12.06,8.14l28.19-5.48c5.58-1.08,9.22-6.48,8.14-12.06s-6.49-9.22-12.06-8.14Z" style="fill:#234c5e;"/><rect x="25.1" y="58.08" width="12.48" height="12.48" transform="translate(-11.7 7.16) rotate(-11)" style="fill:#b6ccf9;"/><rect x="28.67" y="76.46" width="12.48" height="12.48" transform="translate(-15.14 8.18) rotate(-11)" style="fill:#b6ccf9;"/><rect x="32.24" y="94.83" width="12.48" height="12.48" transform="translate(-18.58 9.2) rotate(-11)" style="fill:#b6ccf9;"/><rect x="35.82" y="113.2" width="12.48" height="12.48" transform="translate(-22.02 10.22) rotate(-11)" style="fill:#b6ccf9;"/><rect x="39.39" y="131.58" width="12.48" height="12.48" transform="translate(-25.46 11.24) rotate(-11)" style="fill:#b6ccf9;"/><path d="M26.46,59.36c1.97,1.7,3.79,3.43,5.41,5.55,.67,.88,1.5,2.25,1.59,3.27-.23-.53-1.09-.69-1.49-.18,1-4.48,3.1-13.9,9.79-14.53-6.68,1.55-7.09,9.85-8.16,15.41-.05,.14-.15,.3-.28,.43-.17,.21-.76,.34-.96,.22-.37-.09-.66-.52-.73-.83-.26-.97-.83-1.61-1.5-2.37-1.59-1.71-3.56-3.25-5.51-4.61-1.65-1.21,.23-3.66,1.83-2.35h0Z" style="fill:#00a351;"/><path d="M29.88,76.97c1.97,1.7,3.79,3.43,5.41,5.55,.67,.88,1.5,2.25,1.59,3.27-.23-.53-1.09-.69-1.49-.18,1-4.48,3.1-13.9,9.79-14.53-6.68,1.55-7.09,9.85-8.16,15.41-.05,.14-.15,.3-.28,.43-.17,.21-.76,.34-.96,.22-.37-.09-.66-.52-.73-.83-.26-.97-.83-1.61-1.5-2.37-1.59-1.71-3.56-3.25-5.51-4.61-1.65-1.21,.23-3.66,1.83-2.35h0Z" style="fill:#00a351;"/><path d="M33.3,94.58c1.97,1.7,3.79,3.43,5.41,5.55,.67,.88,1.5,2.25,1.59,3.27-.23-.53-1.09-.69-1.49-.18,1-4.48,3.1-13.9,9.79-14.53-6.68,1.55-7.09,9.85-8.16,15.41-.05,.14-.15,.3-.28,.43-.17,.21-.76,.34-.96,.22-.37-.09-.66-.52-.73-.83-.26-.97-.83-1.61-1.5-2.37-1.59-1.71-3.56-3.25-5.51-4.61-1.65-1.21,.23-3.66,1.83-2.35h0Z" style="fill:#00a351;"/><rect x="41.55" y="53.41" width="53.73" height="2.31" transform="translate(-9.15 14.06) rotate(-11)" style="fill:#909295;"/><rect x="42.67" y="59.2" width="53.73" height="2.31" transform="translate(-10.24 14.38) rotate(-11)" style="fill:#909295;"/><rect x="43.8" y="64.98" width="53.73" height="2.31" transform="translate(-11.32 14.7) rotate(-11)" style="fill:#909295;"/><rect x="44.92" y="70.77" width="53.73" height="2.31" transform="translate(-12.4 15.02) rotate(-11)" style="fill:#909295;"/><rect x="46.05" y="76.56" width="53.73" height="2.31" transform="translate(-13.49 15.34) rotate(-11)" style="fill:#909295;"/><rect x="47.2" y="82.5" width="53.73" height="2.31" transform="translate(-14.6 15.67) rotate(-11)" style="fill:#909295;"/><rect x="48.33" y="88.29" width="53.73" height="2.31" transform="translate(-15.68 15.99) rotate(-11)" style="fill:#909295;"/><rect x="49.45" y="94.07" width="53.73" height="2.31" transform="translate(-16.77 16.31) rotate(-11)" style="fill:#909295;"/><rect x="50.58" y="99.86" width="53.73" height="2.31" transform="translate(-17.85 16.63) rotate(-11)" style="fill:#909295;"/><rect x="51.7" y="105.65" width="53.73" height="2.31" transform="translate(-18.94 16.95) rotate(-11)" style="fill:#909295;"/><rect x="52.86" y="111.59" width="53.73" height="2.31" transform="translate(-20.05 17.28) rotate(-11)" style="fill:#909295;"/><rect x="53.98" y="117.38" width="53.73" height="2.31" transform="translate(-21.13 17.6) rotate(-11)" style="fill:#909295;"/><rect x="55.11" y="123.16" width="53.73" height="2.31" transform="translate(-22.22 17.93) rotate(-11)" style="fill:#909295;"/><rect x="56.23" y="128.95" width="53.73" height="2.31" transform="translate(-23.3 18.25) rotate(-11)" style="fill:#909295;"/><rect x="57.36" y="134.74" width="53.73" height="2.31" transform="translate(-24.38 18.57) rotate(-11)" style="fill:#909295;"/><path d="M78.76,25.91c.18,.95-.44,1.87-1.39,2.06l-44.78,8.71c-.95,.18-1.87-.44-2.06-1.39h0c-.18-.95,.44-1.87,1.39-2.06l44.78-8.71c.95-.19,1.87,.44,2.06,1.39h0Z" style="fill:#234c5e;"/><g><polygon points="127.2 71.07 104.23 71.07 104.23 78.12 108.82 78.12 108.82 88.38 122.61 88.38 122.61 78.12 127.2 78.12 127.2 71.07"/><circle cx="115.71" cy="117.11" r="31.98" style="fill:#fff;"/><path d="M115.71,151.49c-18.96,0-34.38-15.42-34.38-34.38s15.42-34.38,34.38-34.38,34.38,15.42,34.38,34.38-15.42,34.38-34.38,34.38Zm0-62.77c-15.65,0-28.38,12.73-28.38,28.38s12.73,28.38,28.38,28.38,28.38-12.73,28.38-28.38-12.73-28.38-28.38-28.38Z" style="fill:#00a351;"/><path d="M130.4,126.91c-3.56,5.32-9.91,8.6-16.95,7.73-7.96-.99-14.35-7.44-15.28-15.4-1.24-10.55,6.89-19.54,17.14-19.77v-3.73c-12.05,.22-21.7,10.44-20.96,22.71,.66,10.88,9.68,19.67,20.58,20.06,7.74,.28,14.62-3.59,18.59-9.54,.61-.91,.27-2.15-.69-2.66h0c-.85-.45-1.89-.18-2.43,.62Z" style="fill:#5feda3;"/><rect x="113.5" y="90.84" width="4.43" height="27.12" rx="2.21" ry="2.21"/></g><rect x="30.83" y="37.17" width="51.34" height="6.3" transform="translate(-6.65 11.52) rotate(-11)" style="fill:#234c5e;"/></g></g></svg>